<svg xmlns="http://www.w3.org/2000/svg" xmlns:xlink="http://www.w3.org/1999/xlink" width="500" zoomAndPan="magnify" viewBox="0 0 375 374.999991" height="500" preserveAspectRatio="xMidYMid meet" version="1.0"><defs><g/><clipPath id="4105e3b844"><path d="M 3.746094 3.933594 L 371 3.933594 L 371 371.066406 L 3.746094 371.066406 Z M 3.746094 3.933594 " clip-rule="nonzero"/></clipPath><clipPath id="8986d47deb"><path d="M 40.019531 39.648438 L 187.5 39.648438 L 187.5 187.5 L 40.019531 187.5 Z M 40.019531 39.648438 " clip-rule="nonzero"/></clipPath><clipPath id="2fa99730f2"><path d="M 187.5 39.648438 L 334.980469 39.648438 L 334.980469 187.5 L 187.5 187.5 Z M 187.5 39.648438 " clip-rule="nonzero"/></clipPath><clipPath id="17f475ee27"><path d="M 187.5 187.5 L 334.980469 187.5 L 334.980469 335.351562 L 187.5 335.351562 Z M 187.5 187.5 " clip-rule="nonzero"/></clipPath><clipPath id="dc4ba7b90d"><path d="M 40.019531 187.5 L 187.5 187.5 L 187.5 335.351562 L 40.019531 335.351562 Z M 40.019531 187.5 " clip-rule="nonzero"/></clipPath><clipPath id="5475dd41eb"><path d="M 230.609375 186 L 291.9375 186 L 291.9375 211.402344 L 230.609375 211.402344 Z M 230.609375 186 " clip-rule="nonzero"/></clipPath><clipPath id="08b5382b1f"><path d="M 261.242188 211.402344 L 291.871094 186 L 230.609375 186 Z M 261.242188 211.402344 " clip-rule="nonzero"/></clipPath><clipPath id="e9ae69e724"><path d="M 163.621094 230.792969 L 189.023438 230.792969 L 189.023438 292.121094 L 163.621094 292.121094 Z M 163.621094 230.792969 " clip-rule="nonzero"/></clipPath><clipPath id="026b1c0b88"><path d="M 163.621094 261.425781 L 189.023438 292.054688 L 189.023438 230.792969 Z M 163.621094 261.425781 " clip-rule="nonzero"/></clipPath><clipPath id="98bd004cca"><path d="M 83.058594 162.835938 L 144.382812 162.835938 L 144.382812 188.242188 L 83.058594 188.242188 Z M 83.058594 162.835938 " clip-rule="nonzero"/></clipPath><clipPath id="a3aa4d716b"><path d="M 113.753906 162.835938 L 83.125 188.242188 L 144.382812 188.242188 Z M 113.753906 162.835938 " clip-rule="nonzero"/></clipPath><clipPath id="8535f23e41"><path d="M 186.75 82.871094 L 212.15625 82.871094 L 212.15625 144.195312 L 186.75 144.195312 Z M 186.75 82.871094 " clip-rule="nonzero"/></clipPath><clipPath id="222fdb49ae"><path d="M 212.15625 113.566406 L 186.75 82.9375 L 186.75 144.195312 Z M 212.15625 113.566406 " clip-rule="nonzero"/></clipPath></defs><g clip-path="url(#4105e3b844)"><path fill="#ffffff" d="M 3.746094 3.933594 L 370.882812 3.933594 L 370.882812 371.066406 L 3.746094 371.066406 Z M 3.746094 3.933594 " fill-opacity="1" fill-rule="nonzero"/></g><g clip-path="url(#8986d47deb)"><path fill="#f60140" d="M 40.019531 39.648438 L 187.5 39.648438 L 187.5 187.703125 L 40.019531 187.703125 Z M 40.019531 39.648438 " fill-opacity="1" fill-rule="nonzero"/></g><g clip-path="url(#2fa99730f2)"><path fill="#fcccd6" d="M 187.5 39.648438 L 334.980469 39.648438 L 334.980469 187.703125 L 187.5 187.703125 Z M 187.5 39.648438 " fill-opacity="1" fill-rule="nonzero"/></g><g clip-path="url(#17f475ee27)"><path fill="#f60140" d="M 187.5 187.5 L 334.980469 187.5 L 334.980469 335.558594 L 187.5 335.558594 Z M 187.5 187.5 " fill-opacity="1" fill-rule="nonzero"/></g><g clip-path="url(#dc4ba7b90d)"><path fill="#fcccd6" d="M 40.019531 187.5 L 187.5 187.5 L 187.5 335.558594 L 40.019531 335.558594 Z M 40.019531 187.5 " fill-opacity="1" fill-rule="nonzero"/></g><g clip-path="url(#5475dd41eb)"><g clip-path="url(#08b5382b1f)"><path fill="#fcccd6" d="M 230.609375 186 L 291.835938 186 L 291.835938 211.402344 L 230.609375 211.402344 Z M 230.609375 186 " fill-opacity="1" fill-rule="nonzero"/></g></g><g clip-path="url(#e9ae69e724)"><g clip-path="url(#026b1c0b88)"><path fill="#f60140" d="M 189.023438 230.792969 L 189.023438 292.019531 L 163.621094 292.019531 L 163.621094 230.792969 Z M 189.023438 230.792969 " fill-opacity="1" fill-rule="nonzero"/></g></g><g clip-path="url(#98bd004cca)"><g clip-path="url(#a3aa4d716b)"><path fill="#fcccd6" d="M 144.382812 188.242188 L 83.15625 188.242188 L 83.15625 162.835938 L 144.382812 162.835938 Z M 144.382812 188.242188 " fill-opacity="1" fill-rule="nonzero"/></g></g><g clip-path="url(#8535f23e41)"><g clip-path="url(#222fdb49ae)"><path fill="#f60140" d="M 186.75 144.195312 L 186.75 82.96875 L 212.15625 82.96875 L 212.15625 144.195312 Z M 186.75 144.195312 " fill-opacity="1" fill-rule="nonzero"/></g></g><g fill="#000000" fill-opacity="1"><g transform="translate(55.137757, 123.756535)"><g><path d="M 9.5 -19.390625 C 12.644531 -19.390625 15.046875 -18.570312 16.703125 -16.9375 C 18.359375 -15.3125 19.1875 -12.894531 19.1875 -9.6875 C 19.1875 -6.488281 18.359375 -4.070312 16.703125 -2.4375 C 15.046875 -0.8125 12.644531 0 9.5 0 L 2.515625 0 L 2.515625 -19.390625 Z M 9.265625 -3.21875 C 11.265625 -3.21875 12.757812 -3.726562 13.75 -4.75 C 14.738281 -5.769531 15.234375 -7.414062 15.234375 -9.6875 C 15.234375 -11.957031 14.738281 -13.601562 13.75 -14.625 C 12.757812 -15.644531 11.265625 -16.15625 9.265625 -16.15625 L 6.34375 -16.15625 L 6.34375 -3.21875 Z M 9.265625 -3.21875 "/></g></g></g><g fill="#000000" fill-opacity="1"><g transform="translate(75.858966, 123.756535)"><g><path d="M 3.9375 -16.375 C 3.269531 -16.375 2.726562 -16.570312 2.3125 -16.96875 C 1.90625 -17.375 1.703125 -17.894531 1.703125 -18.53125 C 1.703125 -19.164062 1.90625 -19.679688 2.3125 -20.078125 C 2.726562 -20.484375 3.269531 -20.6875 3.9375 -20.6875 C 4.375 -20.6875 4.765625 -20.59375 5.109375 -20.40625 C 5.460938 -20.21875 5.734375 -19.960938 5.921875 -19.640625 C 6.109375 -19.316406 6.203125 -18.945312 6.203125 -18.53125 C 6.203125 -18.125 6.109375 -17.753906 5.921875 -17.421875 C 5.734375 -17.097656 5.460938 -16.84375 5.109375 -16.65625 C 4.765625 -16.46875 4.375 -16.375 3.9375 -16.375 Z M 2.109375 0 L 2.109375 -14.625 L 5.78125 -14.625 L 5.78125 0 Z M 2.109375 0 "/></g></g></g><g fill="#000000" fill-opacity="1"><g transform="translate(83.733819, 123.756535)"><g><path d="M 6.84375 0.28125 C 5.84375 0.28125 4.925781 0.164062 4.09375 -0.0625 C 3.257812 -0.300781 2.550781 -0.625 1.96875 -1.03125 C 1.382812 -1.445312 0.945312 -1.921875 0.65625 -2.453125 L 2.703125 -4.65625 L 2.984375 -4.65625 C 3.472656 -4 4.046875 -3.503906 4.703125 -3.171875 C 5.367188 -2.847656 6.09375 -2.6875 6.875 -2.6875 C 7.582031 -2.6875 8.117188 -2.8125 8.484375 -3.0625 C 8.847656 -3.320312 9.03125 -3.691406 9.03125 -4.171875 C 9.03125 -4.546875 8.898438 -4.859375 8.640625 -5.109375 C 8.378906 -5.359375 7.957031 -5.554688 7.375 -5.703125 L 5.4375 -6.171875 C 3.988281 -6.515625 2.929688 -7.039062 2.265625 -7.75 C 1.597656 -8.457031 1.265625 -9.363281 1.265625 -10.46875 C 1.265625 -11.375 1.492188 -12.160156 1.953125 -12.828125 C 2.421875 -13.503906 3.078125 -14.019531 3.921875 -14.375 C 4.765625 -14.726562 5.75 -14.90625 6.875 -14.90625 C 8.1875 -14.90625 9.273438 -14.710938 10.140625 -14.328125 C 11.003906 -13.953125 11.679688 -13.445312 12.171875 -12.8125 L 10.203125 -10.6875 L 9.9375 -10.6875 C 9.53125 -11.144531 9.070312 -11.476562 8.5625 -11.6875 C 8.0625 -11.90625 7.5 -12.015625 6.875 -12.015625 C 5.414062 -12.015625 4.6875 -11.5625 4.6875 -10.65625 C 4.6875 -10.28125 4.820312 -9.972656 5.09375 -9.734375 C 5.363281 -9.492188 5.84375 -9.300781 6.53125 -9.15625 L 8.328125 -8.75 C 9.816406 -8.4375 10.898438 -7.925781 11.578125 -7.21875 C 12.265625 -6.519531 12.609375 -5.578125 12.609375 -4.390625 C 12.609375 -3.460938 12.378906 -2.644531 11.921875 -1.9375 C 11.460938 -1.226562 10.796875 -0.679688 9.921875 -0.296875 C 9.054688 0.0859375 8.03125 0.28125 6.84375 0.28125 Z M 6.84375 0.28125 "/></g></g></g><g fill="#000000" fill-opacity="1"><g transform="translate(97.216526, 123.756535)"><g><path d="M 8.53125 0.28125 C 7.113281 0.28125 5.859375 -0.0078125 4.765625 -0.59375 C 3.679688 -1.1875 2.832031 -2.050781 2.21875 -3.1875 C 1.613281 -4.332031 1.3125 -5.707031 1.3125 -7.3125 C 1.3125 -8.914062 1.613281 -10.285156 2.21875 -11.421875 C 2.832031 -12.566406 3.675781 -13.429688 4.75 -14.015625 C 5.832031 -14.609375 7.066406 -14.90625 8.453125 -14.90625 C 11.546875 -14.90625 13.523438 -13.785156 14.390625 -11.546875 L 11.875 -9.75 L 11.59375 -9.75 C 11.289062 -10.4375 10.894531 -10.945312 10.40625 -11.28125 C 9.925781 -11.613281 9.273438 -11.78125 8.453125 -11.78125 C 7.398438 -11.78125 6.578125 -11.414062 5.984375 -10.6875 C 5.390625 -9.957031 5.09375 -8.832031 5.09375 -7.3125 C 5.09375 -5.800781 5.390625 -4.675781 5.984375 -3.9375 C 6.585938 -3.207031 7.4375 -2.84375 8.53125 -2.84375 C 9.320312 -2.84375 9.992188 -3.054688 10.546875 -3.484375 C 11.097656 -3.910156 11.492188 -4.523438 11.734375 -5.328125 L 12.015625 -5.359375 L 14.625 -3.921875 C 14.25 -2.679688 13.5625 -1.671875 12.5625 -0.890625 C 11.5625 -0.109375 10.21875 0.28125 8.53125 0.28125 Z M 8.53125 0.28125 "/></g></g></g><g fill="#000000" fill-opacity="1"><g transform="translate(112.290113, 123.756535)"><g><path d="M 8.5 0.28125 C 7.0625 0.28125 5.800781 -0.0078125 4.71875 -0.59375 C 3.644531 -1.1875 2.804688 -2.050781 2.203125 -3.1875 C 1.609375 -4.320312 1.3125 -5.695312 1.3125 -7.3125 C 1.3125 -8.914062 1.609375 -10.285156 2.203125 -11.421875 C 2.804688 -12.566406 3.644531 -13.429688 4.71875 -14.015625 C 5.800781 -14.609375 7.0625 -14.90625 8.5 -14.90625 C 9.925781 -14.90625 11.179688 -14.609375 12.265625 -14.015625 C 13.347656 -13.429688 14.191406 -12.566406 14.796875 -11.421875 C 15.398438 -10.285156 15.703125 -8.914062 15.703125 -7.3125 C 15.703125 -5.695312 15.398438 -4.320312 14.796875 -3.1875 C 14.191406 -2.050781 13.347656 -1.1875 12.265625 -0.59375 C 11.179688 -0.0078125 9.925781 0.28125 8.5 0.28125 Z M 8.5 -2.84375 C 10.769531 -2.84375 11.90625 -4.332031 11.90625 -7.3125 C 11.90625 -8.851562 11.613281 -9.984375 11.03125 -10.703125 C 10.445312 -11.421875 9.601562 -11.78125 8.5 -11.78125 C 6.226562 -11.78125 5.09375 -10.289062 5.09375 -7.3125 C 5.09375 -4.332031 6.226562 -2.84375 8.5 -2.84375 Z M 8.5 -2.84375 "/></g></g></g><g fill="#000000" fill-opacity="1"><g transform="translate(129.286008, 123.756535)"><g><path d="M 10.0625 0 L 5.6875 0 L 0.28125 -14.625 L 4.125 -14.625 L 7.75 -4.203125 L 8.0625 -4.203125 L 11.703125 -14.625 L 15.46875 -14.625 Z M 10.0625 0 "/></g></g></g><g fill="#000000" fill-opacity="1"><g transform="translate(145.0092, 123.756535)"><g><path d="M 14.453125 -6.484375 L 5.046875 -6.484375 C 5.160156 -5.210938 5.523438 -4.285156 6.140625 -3.703125 C 6.753906 -3.128906 7.597656 -2.84375 8.671875 -2.84375 C 9.515625 -2.84375 10.195312 -3 10.71875 -3.3125 C 11.238281 -3.625 11.65625 -4.097656 11.96875 -4.734375 L 12.25 -4.734375 L 14.6875 -3.171875 C 14.207031 -2.140625 13.484375 -1.304688 12.515625 -0.671875 C 11.554688 -0.0351562 10.273438 0.28125 8.671875 0.28125 C 7.160156 0.28125 5.851562 -0.00390625 4.75 -0.578125 C 3.65625 -1.160156 2.804688 -2.019531 2.203125 -3.15625 C 1.609375 -4.289062 1.3125 -5.675781 1.3125 -7.3125 C 1.3125 -8.96875 1.625 -10.363281 2.25 -11.5 C 2.882812 -12.644531 3.734375 -13.5 4.796875 -14.0625 C 5.867188 -14.625 7.070312 -14.90625 8.40625 -14.90625 C 10.476562 -14.90625 12.0625 -14.351562 13.15625 -13.25 C 14.257812 -12.15625 14.8125 -10.550781 14.8125 -8.4375 C 14.8125 -7.664062 14.785156 -7.066406 14.734375 -6.640625 Z M 11.296875 -8.859375 C 11.265625 -9.972656 11.003906 -10.78125 10.515625 -11.28125 C 10.035156 -11.789062 9.332031 -12.046875 8.40625 -12.046875 C 6.550781 -12.046875 5.457031 -10.984375 5.125 -8.859375 Z M 11.296875 -8.859375 "/></g></g></g><g fill="#000000" fill-opacity="1"><g transform="translate(160.904741, 123.756535)"><g><path d="M 2.109375 0 L 2.109375 -14.625 L 5.671875 -14.625 L 5.671875 -12.453125 L 5.953125 -12.390625 C 6.304688 -13.210938 6.769531 -13.8125 7.34375 -14.1875 C 7.914062 -14.570312 8.613281 -14.765625 9.4375 -14.765625 C 10.269531 -14.765625 10.90625 -14.617188 11.34375 -14.328125 L 10.71875 -11.171875 L 10.4375 -11.109375 C 10.195312 -11.203125 9.96875 -11.269531 9.75 -11.3125 C 9.53125 -11.363281 9.257812 -11.390625 8.9375 -11.390625 C 7.914062 -11.390625 7.132812 -11.03125 6.59375 -10.3125 C 6.050781 -9.59375 5.78125 -8.4375 5.78125 -6.84375 L 5.78125 0 Z M 2.109375 0 "/></g></g></g><g fill="#000000" fill-opacity="1"><g transform="translate(216.083004, 123.756535)"><g><path d="M 9.5 -19.390625 C 12.644531 -19.390625 15.046875 -18.570312 16.703125 -16.9375 C 18.359375 -15.3125 19.1875 -12.894531 19.1875 -9.6875 C 19.1875 -6.488281 18.359375 -4.070312 16.703125 -2.4375 C 15.046875 -0.8125 12.644531 0 9.5 0 L 2.515625 0 L 2.515625 -19.390625 Z M 9.265625 -3.21875 C 11.265625 -3.21875 12.757812 -3.726562 13.75 -4.75 C 14.738281 -5.769531 15.234375 -7.414062 15.234375 -9.6875 C 15.234375 -11.957031 14.738281 -13.601562 13.75 -14.625 C 12.757812 -15.644531 11.265625 -16.15625 9.265625 -16.15625 L 6.34375 -16.15625 L 6.34375 -3.21875 Z M 9.265625 -3.21875 "/></g></g></g><g fill="#000000" fill-opacity="1"><g transform="translate(236.804213, 123.756535)"><g><path d="M 14.453125 -6.484375 L 5.046875 -6.484375 C 5.160156 -5.210938 5.523438 -4.285156 6.140625 -3.703125 C 6.753906 -3.128906 7.597656 -2.84375 8.671875 -2.84375 C 9.515625 -2.84375 10.195312 -3 10.71875 -3.3125 C 11.238281 -3.625 11.65625 -4.097656 11.96875 -4.734375 L 12.25 -4.734375 L 14.6875 -3.171875 C 14.207031 -2.140625 13.484375 -1.304688 12.515625 -0.671875 C 11.554688 -0.0351562 10.273438 0.28125 8.671875 0.28125 C 7.160156 0.28125 5.851562 -0.00390625 4.75 -0.578125 C 3.65625 -1.160156 2.804688 -2.019531 2.203125 -3.15625 C 1.609375 -4.289062 1.3125 -5.675781 1.3125 -7.3125 C 1.3125 -8.96875 1.625 -10.363281 2.25 -11.5 C 2.882812 -12.644531 3.734375 -13.5 4.796875 -14.0625 C 5.867188 -14.625 7.070312 -14.90625 8.40625 -14.90625 C 10.476562 -14.90625 12.0625 -14.351562 13.15625 -13.25 C 14.257812 -12.15625 14.8125 -10.550781 14.8125 -8.4375 C 14.8125 -7.664062 14.785156 -7.066406 14.734375 -6.640625 Z M 11.296875 -8.859375 C 11.265625 -9.972656 11.003906 -10.78125 10.515625 -11.28125 C 10.035156 -11.789062 9.332031 -12.046875 8.40625 -12.046875 C 6.550781 -12.046875 5.457031 -10.984375 5.125 -8.859375 Z M 11.296875 -8.859375 "/></g></g></g><g fill="#000000" fill-opacity="1"><g transform="translate(252.699754, 123.756535)"><g><path d="M 6.84375 0.28125 C 5.84375 0.28125 4.925781 0.164062 4.09375 -0.0625 C 3.257812 -0.300781 2.550781 -0.625 1.96875 -1.03125 C 1.382812 -1.445312 0.945312 -1.921875 0.65625 -2.453125 L 2.703125 -4.65625 L 2.984375 -4.65625 C 3.472656 -4 4.046875 -3.503906 4.703125 -3.171875 C 5.367188 -2.847656 6.09375 -2.6875 6.875 -2.6875 C 7.582031 -2.6875 8.117188 -2.8125 8.484375 -3.0625 C 8.847656 -3.320312 9.03125 -3.691406 9.03125 -4.171875 C 9.03125 -4.546875 8.898438 -4.859375 8.640625 -5.109375 C 8.378906 -5.359375 7.957031 -5.554688 7.375 -5.703125 L 5.4375 -6.171875 C 3.988281 -6.515625 2.929688 -7.039062 2.265625 -7.75 C 1.597656 -8.457031 1.265625 -9.363281 1.265625 -10.46875 C 1.265625 -11.375 1.492188 -12.160156 1.953125 -12.828125 C 2.421875 -13.503906 3.078125 -14.019531 3.921875 -14.375 C 4.765625 -14.726562 5.75 -14.90625 6.875 -14.90625 C 8.1875 -14.90625 9.273438 -14.710938 10.140625 -14.328125 C 11.003906 -13.953125 11.679688 -13.445312 12.171875 -12.8125 L 10.203125 -10.6875 L 9.9375 -10.6875 C 9.53125 -11.144531 9.070312 -11.476562 8.5625 -11.6875 C 8.0625 -11.90625 7.5 -12.015625 6.875 -12.015625 C 5.414062 -12.015625 4.6875 -11.5625 4.6875 -10.65625 C 4.6875 -10.28125 4.820312 -9.972656 5.09375 -9.734375 C 5.363281 -9.492188 5.84375 -9.300781 6.53125 -9.15625 L 8.328125 -8.75 C 9.816406 -8.4375 10.898438 -7.925781 11.578125 -7.21875 C 12.265625 -6.519531 12.609375 -5.578125 12.609375 -4.390625 C 12.609375 -3.460938 12.378906 -2.644531 11.921875 -1.9375 C 11.460938 -1.226562 10.796875 -0.679688 9.921875 -0.296875 C 9.054688 0.0859375 8.03125 0.28125 6.84375 0.28125 Z M 6.84375 0.28125 "/></g></g></g><g fill="#000000" fill-opacity="1"><g transform="translate(266.182461, 123.756535)"><g><path d="M 3.9375 -16.375 C 3.269531 -16.375 2.726562 -16.570312 2.3125 -16.96875 C 1.90625 -17.375 1.703125 -17.894531 1.703125 -18.53125 C 1.703125 -19.164062 1.90625 -19.679688 2.3125 -20.078125 C 2.726562 -20.484375 3.269531 -20.6875 3.9375 -20.6875 C 4.375 -20.6875 4.765625 -20.59375 5.109375 -20.40625 C 5.460938 -20.21875 5.734375 -19.960938 5.921875 -19.640625 C 6.109375 -19.316406 6.203125 -18.945312 6.203125 -18.53125 C 6.203125 -18.125 6.109375 -17.753906 5.921875 -17.421875 C 5.734375 -17.097656 5.460938 -16.84375 5.109375 -16.65625 C 4.765625 -16.46875 4.375 -16.375 3.9375 -16.375 Z M 2.109375 0 L 2.109375 -14.625 L 5.78125 -14.625 L 5.78125 0 Z M 2.109375 0 "/></g></g></g><g fill="#000000" fill-opacity="1"><g transform="translate(274.057314, 123.756535)"><g><path d="M 7.578125 6.203125 C 5.171875 6.203125 3.390625 5.847656 2.234375 5.140625 C 1.085938 4.429688 0.515625 3.445312 0.515625 2.1875 C 0.515625 1.414062 0.757812 0.785156 1.25 0.296875 C 1.738281 -0.191406 2.445312 -0.519531 3.375 -0.6875 L 3.375 -0.96875 C 2.875 -1.269531 2.515625 -1.601562 2.296875 -1.96875 C 2.078125 -2.332031 1.96875 -2.757812 1.96875 -3.25 C 1.96875 -4.425781 2.734375 -5.21875 4.265625 -5.625 L 4.265625 -5.90625 C 3.484375 -6.351562 2.890625 -6.910156 2.484375 -7.578125 C 2.085938 -8.242188 1.890625 -9.050781 1.890625 -10 C 1.890625 -10.96875 2.113281 -11.820312 2.5625 -12.5625 C 3.007812 -13.300781 3.664062 -13.875 4.53125 -14.28125 C 5.394531 -14.695312 6.425781 -14.90625 7.625 -14.90625 C 8.84375 -14.90625 9.816406 -14.691406 10.546875 -14.265625 C 10.992188 -14.921875 11.253906 -15.675781 11.328125 -16.53125 L 11.609375 -16.703125 L 14.234375 -16.0625 C 14.160156 -15.363281 13.957031 -14.773438 13.625 -14.296875 C 13.300781 -13.828125 12.796875 -13.40625 12.109375 -13.03125 L 12.109375 -12.75 C 12.929688 -12.019531 13.34375 -11.003906 13.34375 -9.703125 C 13.34375 -8.804688 13.113281 -8 12.65625 -7.28125 C 12.207031 -6.5625 11.550781 -5.992188 10.6875 -5.578125 C 9.832031 -5.160156 8.8125 -4.953125 7.625 -4.953125 L 7.0625 -4.96875 C 6.707031 -4.988281 6.460938 -5 6.328125 -5 C 5.992188 -5 5.726562 -4.90625 5.53125 -4.71875 C 5.34375 -4.539062 5.25 -4.3125 5.25 -4.03125 C 5.25 -3.71875 5.375 -3.472656 5.625 -3.296875 C 5.875 -3.128906 6.234375 -3.035156 6.703125 -3.015625 L 9.984375 -2.90625 C 13.222656 -2.8125 14.84375 -1.421875 14.84375 1.265625 C 14.84375 2.210938 14.597656 3.054688 14.109375 3.796875 C 13.628906 4.535156 12.847656 5.117188 11.765625 5.546875 C 10.691406 5.984375 9.296875 6.203125 7.578125 6.203125 Z M 7.625 -7.53125 C 8.332031 -7.53125 8.882812 -7.738281 9.28125 -8.15625 C 9.675781 -8.570312 9.875 -9.164062 9.875 -9.9375 C 9.875 -10.695312 9.675781 -11.28125 9.28125 -11.6875 C 8.882812 -12.101562 8.332031 -12.3125 7.625 -12.3125 C 6.90625 -12.3125 6.351562 -12.101562 5.96875 -11.6875 C 5.582031 -11.28125 5.390625 -10.695312 5.390625 -9.9375 C 5.390625 -9.15625 5.582031 -8.554688 5.96875 -8.140625 C 6.351562 -7.734375 6.90625 -7.53125 7.625 -7.53125 Z M 7.578125 3.546875 C 8.835938 3.546875 9.75 3.367188 10.3125 3.015625 C 10.882812 2.660156 11.171875 2.195312 11.171875 1.625 C 11.171875 1.164062 11.023438 0.828125 10.734375 0.609375 C 10.441406 0.398438 9.976562 0.285156 9.34375 0.265625 L 6.453125 0.125 C 6.359375 0.125 6.269531 0.117188 6.1875 0.109375 C 6.101562 0.109375 6.019531 0.109375 5.9375 0.109375 C 5.320312 0.109375 4.851562 0.238281 4.53125 0.5 C 4.207031 0.769531 4.046875 1.140625 4.046875 1.609375 C 4.046875 2.222656 4.34375 2.695312 4.9375 3.03125 C 5.53125 3.375 6.410156 3.546875 7.578125 3.546875 Z M 7.578125 3.546875 "/></g></g></g><g fill="#000000" fill-opacity="1"><g transform="translate(289.263474, 123.756535)"><g><path d="M 2.109375 0 L 2.109375 -14.625 L 5.640625 -14.625 L 5.640625 -12.484375 L 5.90625 -12.40625 C 6.820312 -14.070312 8.300781 -14.90625 10.34375 -14.90625 C 12.03125 -14.90625 13.269531 -14.441406 14.0625 -13.515625 C 14.851562 -12.597656 15.25 -11.257812 15.25 -9.5 L 15.25 0 L 11.578125 0 L 11.578125 -9.0625 C 11.578125 -10.03125 11.378906 -10.726562 10.984375 -11.15625 C 10.597656 -11.582031 9.976562 -11.796875 9.125 -11.796875 C 8.070312 -11.796875 7.25 -11.457031 6.65625 -10.78125 C 6.070312 -10.101562 5.78125 -9.035156 5.78125 -7.578125 L 5.78125 0 Z M 2.109375 0 "/></g></g></g><g fill="#000000" fill-opacity="1"><g transform="translate(213.246977, 271.608706)"><g><path d="M 9.5 -19.390625 C 12.644531 -19.390625 15.046875 -18.570312 16.703125 -16.9375 C 18.359375 -15.3125 19.1875 -12.894531 19.1875 -9.6875 C 19.1875 -6.488281 18.359375 -4.070312 16.703125 -2.4375 C 15.046875 -0.8125 12.644531 0 9.5 0 L 2.515625 0 L 2.515625 -19.390625 Z M 9.265625 -3.21875 C 11.265625 -3.21875 12.757812 -3.726562 13.75 -4.75 C 14.738281 -5.769531 15.234375 -7.414062 15.234375 -9.6875 C 15.234375 -11.957031 14.738281 -13.601562 13.75 -14.625 C 12.757812 -15.644531 11.265625 -16.15625 9.265625 -16.15625 L 6.34375 -16.15625 L 6.34375 -3.21875 Z M 9.265625 -3.21875 "/></g></g></g><g fill="#000000" fill-opacity="1"><g transform="translate(233.968186, 271.608706)"><g><path d="M 14.453125 -6.484375 L 5.046875 -6.484375 C 5.160156 -5.210938 5.523438 -4.285156 6.140625 -3.703125 C 6.753906 -3.128906 7.597656 -2.84375 8.671875 -2.84375 C 9.515625 -2.84375 10.195312 -3 10.71875 -3.3125 C 11.238281 -3.625 11.65625 -4.097656 11.96875 -4.734375 L 12.25 -4.734375 L 14.6875 -3.171875 C 14.207031 -2.140625 13.484375 -1.304688 12.515625 -0.671875 C 11.554688 -0.0351562 10.273438 0.28125 8.671875 0.28125 C 7.160156 0.28125 5.851562 -0.00390625 4.75 -0.578125 C 3.65625 -1.160156 2.804688 -2.019531 2.203125 -3.15625 C 1.609375 -4.289062 1.3125 -5.675781 1.3125 -7.3125 C 1.3125 -8.96875 1.625 -10.363281 2.25 -11.5 C 2.882812 -12.644531 3.734375 -13.5 4.796875 -14.0625 C 5.867188 -14.625 7.070312 -14.90625 8.40625 -14.90625 C 10.476562 -14.90625 12.0625 -14.351562 13.15625 -13.25 C 14.257812 -12.15625 14.8125 -10.550781 14.8125 -8.4375 C 14.8125 -7.664062 14.785156 -7.066406 14.734375 -6.640625 Z M 11.296875 -8.859375 C 11.265625 -9.972656 11.003906 -10.78125 10.515625 -11.28125 C 10.035156 -11.789062 9.332031 -12.046875 8.40625 -12.046875 C 6.550781 -12.046875 5.457031 -10.984375 5.125 -8.859375 Z M 11.296875 -8.859375 "/></g></g></g><g fill="#000000" fill-opacity="1"><g transform="translate(249.863727, 271.608706)"><g><path d="M 6.078125 0.28125 C 4.753906 0.28125 3.742188 -0.0703125 3.046875 -0.78125 C 2.359375 -1.5 2.015625 -2.582031 2.015625 -4.03125 L 2.015625 -20.5 L 5.6875 -20.5 L 5.6875 -4.171875 C 5.6875 -3.285156 6.054688 -2.84375 6.796875 -2.84375 C 7.015625 -2.84375 7.242188 -2.875 7.484375 -2.9375 L 7.671875 -2.890625 L 8 -0.0625 C 7.789062 0.0390625 7.519531 0.125 7.1875 0.1875 C 6.851562 0.25 6.484375 0.28125 6.078125 0.28125 Z M 6.078125 0.28125 "/></g></g></g><g fill="#000000" fill-opacity="1"><g transform="translate(258.268873, 271.608706)"><g><path d="M 3.9375 -16.375 C 3.269531 -16.375 2.726562 -16.570312 2.3125 -16.96875 C 1.90625 -17.375 1.703125 -17.894531 1.703125 -18.53125 C 1.703125 -19.164062 1.90625 -19.679688 2.3125 -20.078125 C 2.726562 -20.484375 3.269531 -20.6875 3.9375 -20.6875 C 4.375 -20.6875 4.765625 -20.59375 5.109375 -20.40625 C 5.460938 -20.21875 5.734375 -19.960938 5.921875 -19.640625 C 6.109375 -19.316406 6.203125 -18.945312 6.203125 -18.53125 C 6.203125 -18.125 6.109375 -17.753906 5.921875 -17.421875 C 5.734375 -17.097656 5.460938 -16.84375 5.109375 -16.65625 C 4.765625 -16.46875 4.375 -16.375 3.9375 -16.375 Z M 2.109375 0 L 2.109375 -14.625 L 5.78125 -14.625 L 5.78125 0 Z M 2.109375 0 "/></g></g></g><g fill="#000000" fill-opacity="1"><g transform="translate(266.143727, 271.608706)"><g><path d="M 10.0625 0 L 5.6875 0 L 0.28125 -14.625 L 4.125 -14.625 L 7.75 -4.203125 L 8.0625 -4.203125 L 11.703125 -14.625 L 15.46875 -14.625 Z M 10.0625 0 "/></g></g></g><g fill="#000000" fill-opacity="1"><g transform="translate(281.866919, 271.608706)"><g><path d="M 14.453125 -6.484375 L 5.046875 -6.484375 C 5.160156 -5.210938 5.523438 -4.285156 6.140625 -3.703125 C 6.753906 -3.128906 7.597656 -2.84375 8.671875 -2.84375 C 9.515625 -2.84375 10.195312 -3 10.71875 -3.3125 C 11.238281 -3.625 11.65625 -4.097656 11.96875 -4.734375 L 12.25 -4.734375 L 14.6875 -3.171875 C 14.207031 -2.140625 13.484375 -1.304688 12.515625 -0.671875 C 11.554688 -0.0351562 10.273438 0.28125 8.671875 0.28125 C 7.160156 0.28125 5.851562 -0.00390625 4.75 -0.578125 C 3.65625 -1.160156 2.804688 -2.019531 2.203125 -3.15625 C 1.609375 -4.289062 1.3125 -5.675781 1.3125 -7.3125 C 1.3125 -8.96875 1.625 -10.363281 2.25 -11.5 C 2.882812 -12.644531 3.734375 -13.5 4.796875 -14.0625 C 5.867188 -14.625 7.070312 -14.90625 8.40625 -14.90625 C 10.476562 -14.90625 12.0625 -14.351562 13.15625 -13.25 C 14.257812 -12.15625 14.8125 -10.550781 14.8125 -8.4375 C 14.8125 -7.664062 14.785156 -7.066406 14.734375 -6.640625 Z M 11.296875 -8.859375 C 11.265625 -9.972656 11.003906 -10.78125 10.515625 -11.28125 C 10.035156 -11.789062 9.332031 -12.046875 8.40625 -12.046875 C 6.550781 -12.046875 5.457031 -10.984375 5.125 -8.859375 Z M 11.296875 -8.859375 "/></g></g></g><g fill="#000000" fill-opacity="1"><g transform="translate(297.76246, 271.608706)"><g><path d="M 2.109375 0 L 2.109375 -14.625 L 5.671875 -14.625 L 5.671875 -12.453125 L 5.953125 -12.390625 C 6.304688 -13.210938 6.769531 -13.8125 7.34375 -14.1875 C 7.914062 -14.570312 8.613281 -14.765625 9.4375 -14.765625 C 10.269531 -14.765625 10.90625 -14.617188 11.34375 -14.328125 L 10.71875 -11.171875 L 10.4375 -11.109375 C 10.195312 -11.203125 9.96875 -11.269531 9.75 -11.3125 C 9.53125 -11.363281 9.257812 -11.390625 8.9375 -11.390625 C 7.914062 -11.390625 7.132812 -11.03125 6.59375 -10.3125 C 6.050781 -9.59375 5.78125 -8.4375 5.78125 -6.84375 L 5.78125 0 Z M 2.109375 0 "/></g></g></g><g fill="#000000" fill-opacity="1"><g transform="translate(77.913419, 271.608706)"><g><path d="M 9.5 -19.390625 C 12.644531 -19.390625 15.046875 -18.570312 16.703125 -16.9375 C 18.359375 -15.3125 19.1875 -12.894531 19.1875 -9.6875 C 19.1875 -6.488281 18.359375 -4.070312 16.703125 -2.4375 C 15.046875 -0.8125 12.644531 0 9.5 0 L 2.515625 0 L 2.515625 -19.390625 Z M 9.265625 -3.21875 C 11.265625 -3.21875 12.757812 -3.726562 13.75 -4.75 C 14.738281 -5.769531 15.234375 -7.414062 15.234375 -9.6875 C 15.234375 -11.957031 14.738281 -13.601562 13.75 -14.625 C 12.757812 -15.644531 11.265625 -16.15625 9.265625 -16.15625 L 6.34375 -16.15625 L 6.34375 -3.21875 Z M 9.265625 -3.21875 "/></g></g></g><g fill="#000000" fill-opacity="1"><g transform="translate(98.634628, 271.608706)"><g><path d="M 2.109375 0 L 2.109375 -14.625 L 5.671875 -14.625 L 5.671875 -12.453125 L 5.953125 -12.390625 C 6.304688 -13.210938 6.769531 -13.8125 7.34375 -14.1875 C 7.914062 -14.570312 8.613281 -14.765625 9.4375 -14.765625 C 10.269531 -14.765625 10.90625 -14.617188 11.34375 -14.328125 L 10.71875 -11.171875 L 10.4375 -11.109375 C 10.195312 -11.203125 9.96875 -11.269531 9.75 -11.3125 C 9.53125 -11.363281 9.257812 -11.390625 8.9375 -11.390625 C 7.914062 -11.390625 7.132812 -11.03125 6.59375 -10.3125 C 6.050781 -9.59375 5.78125 -8.4375 5.78125 -6.84375 L 5.78125 0 Z M 2.109375 0 "/></g></g></g><g fill="#000000" fill-opacity="1"><g transform="translate(110.102221, 271.608706)"><g><path d="M 3.9375 -16.375 C 3.269531 -16.375 2.726562 -16.570312 2.3125 -16.96875 C 1.90625 -17.375 1.703125 -17.894531 1.703125 -18.53125 C 1.703125 -19.164062 1.90625 -19.679688 2.3125 -20.078125 C 2.726562 -20.484375 3.269531 -20.6875 3.9375 -20.6875 C 4.375 -20.6875 4.765625 -20.59375 5.109375 -20.40625 C 5.460938 -20.21875 5.734375 -19.960938 5.921875 -19.640625 C 6.109375 -19.316406 6.203125 -18.945312 6.203125 -18.53125 C 6.203125 -18.125 6.109375 -17.753906 5.921875 -17.421875 C 5.734375 -17.097656 5.460938 -16.84375 5.109375 -16.65625 C 4.765625 -16.46875 4.375 -16.375 3.9375 -16.375 Z M 2.109375 0 L 2.109375 -14.625 L 5.78125 -14.625 L 5.78125 0 Z M 2.109375 0 "/></g></g></g><g fill="#000000" fill-opacity="1"><g transform="translate(117.977074, 271.608706)"><g><path d="M 10.0625 0 L 5.6875 0 L 0.28125 -14.625 L 4.125 -14.625 L 7.75 -4.203125 L 8.0625 -4.203125 L 11.703125 -14.625 L 15.46875 -14.625 Z M 10.0625 0 "/></g></g></g><g fill="#000000" fill-opacity="1"><g transform="translate(133.700267, 271.608706)"><g><path d="M 14.453125 -6.484375 L 5.046875 -6.484375 C 5.160156 -5.210938 5.523438 -4.285156 6.140625 -3.703125 C 6.753906 -3.128906 7.597656 -2.84375 8.671875 -2.84375 C 9.515625 -2.84375 10.195312 -3 10.71875 -3.3125 C 11.238281 -3.625 11.65625 -4.097656 11.96875 -4.734375 L 12.25 -4.734375 L 14.6875 -3.171875 C 14.207031 -2.140625 13.484375 -1.304688 12.515625 -0.671875 C 11.554688 -0.0351562 10.273438 0.28125 8.671875 0.28125 C 7.160156 0.28125 5.851562 -0.00390625 4.75 -0.578125 C 3.65625 -1.160156 2.804688 -2.019531 2.203125 -3.15625 C 1.609375 -4.289062 1.3125 -5.675781 1.3125 -7.3125 C 1.3125 -8.96875 1.625 -10.363281 2.25 -11.5 C 2.882812 -12.644531 3.734375 -13.5 4.796875 -14.0625 C 5.867188 -14.625 7.070312 -14.90625 8.40625 -14.90625 C 10.476562 -14.90625 12.0625 -14.351562 13.15625 -13.25 C 14.257812 -12.15625 14.8125 -10.550781 14.8125 -8.4375 C 14.8125 -7.664062 14.785156 -7.066406 14.734375 -6.640625 Z M 11.296875 -8.859375 C 11.265625 -9.972656 11.003906 -10.78125 10.515625 -11.28125 C 10.035156 -11.789062 9.332031 -12.046875 8.40625 -12.046875 C 6.550781 -12.046875 5.457031 -10.984375 5.125 -8.859375 Z M 11.296875 -8.859375 "/></g></g></g></svg>