<svg xmlns="http://www.w3.org/2000/svg" id="Layer_2" width="1713.8" height="1727.9" data-name="Layer 2"><defs><style>.cls-1{fill:#404040}.cls-2{fill:none}.cls-4{fill:#fff}</style></defs><g id="Layer_6" data-name="Layer 6"><path d="M946 1676s-738 108-857-660H0l274-257 272 244-73 6.09S463 1283 946 1261" class="cls-1"/><path d="M1639.9 781.9s108 738-660 857v89l-257-274 244-272 6.09 73s273.91 10 251.91-473" style="fill:#b3a89d"/><path d="M767.8 80s738-108 857 660h89l-274 257-272-244 73-6.09s10-273.91-473-251.91" style="fill:#f60040"/><path d="M71.9 946s-108-738 660-857V0l257 274-244 272-6.09-73S464.9 463 486.9 946" style="fill:#d9d9d9"/><path d="M99.42 1073.69c-3.87-18.66-7.35-37.88-10.42-57.69H0l274-257 272 244-73 6.09s-1.01 27.62 13.08 64.61" class="cls-1"/><path d="M431.84 349.03h22.26c5.32 0 10.02 1.01 14.1 3.04 4.08 2.03 7.26 4.89 9.52 8.58 2.26 3.69 3.4 7.98 3.4 12.88s-1.13 9.19-3.4 12.88c-2.26 3.69-5.44 6.54-9.52 8.58-4.08 2.03-8.78 3.04-14.1 3.04h-22.26v-49Zm21.7 39.69c4.9 0 8.81-1.37 11.73-4.1 2.92-2.73 4.38-6.43 4.38-11.09s-1.46-8.37-4.38-11.09c-2.92-2.73-6.82-4.1-11.73-4.1h-10.36v30.38h10.36ZM504.6 361.21c2.22-.93 4.77-1.4 7.67-1.4v10.08c-1.21-.09-2.03-.14-2.45-.14-3.13 0-5.58.88-7.35 2.62-1.77 1.75-2.66 4.38-2.66 7.88v17.78h-10.92v-37.66h10.43v4.97c1.31-1.82 3.07-3.2 5.28-4.13ZM519.34 353.37c-1.26-1.17-1.89-2.61-1.89-4.34s.63-3.17 1.89-4.34c1.26-1.17 2.89-1.75 4.9-1.75s3.64.56 4.9 1.68c1.26 1.12 1.89 2.52 1.89 4.2 0 1.82-.63 3.33-1.89 4.51-1.26 1.19-2.89 1.79-4.9 1.79s-3.64-.58-4.9-1.75Zm-.56 7h10.92v37.66h-10.92v-37.66ZM577.23 360.37l-15.89 37.66h-11.27l-15.82-37.66h11.27l10.43 25.62 10.78-25.62h10.5ZM617.34 382.28h-28.49c.51 2.33 1.73 4.18 3.64 5.53 1.91 1.35 4.29 2.03 7.14 2.03 1.96 0 3.7-.29 5.22-.88 1.52-.58 2.93-1.5 4.23-2.76l5.81 6.3c-3.55 4.06-8.73 6.09-15.54 6.09-4.25 0-8-.83-11.27-2.48-3.27-1.66-5.79-3.96-7.56-6.9-1.77-2.94-2.66-6.28-2.66-10.01s.88-7.01 2.62-9.97c1.75-2.96 4.15-5.27 7.21-6.93 3.06-1.66 6.47-2.48 10.25-2.48s7.02.79 10.01 2.38c2.99 1.59 5.33 3.86 7.04 6.83 1.7 2.96 2.56 6.4 2.56 10.32 0 .14-.07 1.12-.21 2.94Zm-25.55-12.11c-1.68 1.4-2.71 3.31-3.08 5.74h18.55c-.37-2.38-1.4-4.28-3.08-5.71-1.68-1.42-3.73-2.13-6.16-2.13s-4.55.7-6.23 2.1Z"/><path d="M1099.84 395.03h22.26c5.32 0 10.02 1.01 14.1 3.04 4.08 2.03 7.26 4.89 9.52 8.58 2.26 3.69 3.4 7.98 3.4 12.88s-1.13 9.19-3.4 12.88c-2.26 3.69-5.44 6.54-9.52 8.58-4.08 2.03-8.78 3.04-14.1 3.04h-22.26v-49Zm21.7 39.69c4.9 0 8.81-1.37 11.73-4.1 2.92-2.73 4.38-6.43 4.38-11.09s-1.46-8.37-4.38-11.09c-2.92-2.73-6.82-4.1-11.73-4.1h-10.36v30.38h10.36ZM1157.45 399.37c-1.26-1.17-1.89-2.61-1.89-4.34s.63-3.17 1.89-4.34c1.26-1.17 2.89-1.75 4.9-1.75s3.64.56 4.9 1.68c1.26 1.12 1.89 2.52 1.89 4.2 0 1.82-.63 3.33-1.89 4.51-1.26 1.19-2.89 1.79-4.9 1.79s-3.64-.58-4.9-1.75Zm-.56 7h10.92v37.66h-10.92v-37.66ZM1181.46 443.44c-2.99-.77-5.37-1.74-7.14-2.91l3.64-7.84c1.68 1.07 3.71 1.95 6.09 2.62 2.38.68 4.71 1.01 7 1.01 4.62 0 6.93-1.14 6.93-3.43 0-1.07-.63-1.84-1.89-2.31-1.26-.47-3.2-.86-5.81-1.19-3.08-.47-5.62-1-7.63-1.61-2.01-.61-3.75-1.68-5.21-3.22-1.47-1.54-2.21-3.73-2.21-6.58 0-2.38.69-4.49 2.06-6.33 1.38-1.84 3.38-3.28 6.02-4.3 2.64-1.03 5.75-1.54 9.35-1.54 2.66 0 5.31.29 7.94.88 2.64.58 4.82 1.39 6.54 2.42l-3.64 7.77c-3.31-1.87-6.93-2.8-10.85-2.8-2.33 0-4.08.33-5.25.98-1.17.65-1.75 1.49-1.75 2.52 0 1.17.63 1.98 1.89 2.45 1.26.47 3.27.91 6.02 1.33 3.08.51 5.6 1.06 7.56 1.64 1.96.58 3.66 1.65 5.11 3.19 1.45 1.54 2.17 3.69 2.17 6.44 0 2.33-.7 4.41-2.1 6.23-1.4 1.82-3.44 3.23-6.12 4.23-2.68 1-5.87 1.5-9.56 1.5-3.13 0-6.18-.38-9.17-1.15ZM1222.51 442.11c-3.2-1.66-5.69-3.96-7.49-6.9-1.8-2.94-2.69-6.28-2.69-10.01s.9-7.07 2.69-10.01c1.8-2.94 4.29-5.24 7.49-6.9 3.2-1.66 6.8-2.48 10.82-2.48s7.43.83 10.39 2.48c2.96 1.66 5.12 4.03 6.48 7.11l-8.47 4.55c-1.96-3.45-4.78-5.18-8.47-5.18-2.85 0-5.2.93-7.07 2.8-1.87 1.87-2.8 4.41-2.8 7.63s.93 5.76 2.8 7.63c1.87 1.87 4.22 2.8 7.07 2.8 3.73 0 6.56-1.73 8.47-5.18l8.47 4.62c-1.35 2.99-3.51 5.32-6.48 7-2.96 1.68-6.43 2.52-10.39 2.52s-7.62-.83-10.82-2.48ZM1263.25 442.11c-3.15-1.66-5.61-3.96-7.39-6.9-1.77-2.94-2.66-6.28-2.66-10.01s.89-7.07 2.66-10.01c1.77-2.94 4.23-5.24 7.39-6.9 3.15-1.66 6.71-2.48 10.67-2.48s7.51.83 10.64 2.48c3.13 1.66 5.58 3.96 7.35 6.9 1.77 2.94 2.66 6.28 2.66 10.01s-.89 7.07-2.66 10.01c-1.77 2.94-4.22 5.24-7.35 6.9-3.13 1.66-6.67 2.48-10.64 2.48s-7.52-.83-10.67-2.48Zm17.57-9.31c1.8-1.89 2.69-4.42 2.69-7.59s-.9-5.71-2.69-7.59c-1.8-1.89-4.1-2.83-6.9-2.83s-5.11.94-6.93 2.83c-1.82 1.89-2.73 4.42-2.73 7.59s.91 5.71 2.73 7.59c1.82 1.89 4.13 2.83 6.93 2.83s5.1-.94 6.9-2.83ZM1338.19 406.37l-15.89 37.66h-11.27l-15.82-37.66h11.27l10.43 25.62 10.78-25.62h10.5ZM1378.3 428.28h-28.49c.51 2.33 1.73 4.18 3.64 5.53 1.91 1.35 4.29 2.03 7.14 2.03 1.96 0 3.7-.29 5.22-.88 1.52-.58 2.93-1.5 4.23-2.76l5.81 6.3c-3.55 4.06-8.73 6.09-15.54 6.09-4.25 0-8-.83-11.27-2.48-3.27-1.66-5.79-3.96-7.56-6.9-1.77-2.94-2.66-6.28-2.66-10.01s.88-7.01 2.62-9.97c1.75-2.96 4.15-5.27 7.21-6.93 3.06-1.66 6.47-2.48 10.25-2.48s7.02.79 10.01 2.38c2.99 1.59 5.33 3.86 7.04 6.83 1.7 2.96 2.56 6.4 2.56 10.32 0 .14-.07 1.12-.21 2.94Zm-25.55-12.11c-1.68 1.4-2.71 3.31-3.08 5.74h18.55c-.37-2.38-1.4-4.28-3.08-5.71-1.68-1.42-3.73-2.13-6.16-2.13s-4.55.7-6.23 2.1ZM1401.5 407.21c2.22-.93 4.77-1.4 7.67-1.4v10.08c-1.21-.09-2.03-.14-2.45-.14-3.13 0-5.58.88-7.35 2.62-1.77 1.75-2.66 4.38-2.66 7.88v17.78h-10.92v-37.66h10.43v4.97c1.31-1.82 3.07-3.2 5.28-4.13Z" class="cls-4"/><circle cx="1203.85" cy="1354.08" r="21.58" class="cls-2"/><path d="M1272.85 1366.33c-1.29-.21-2.61-.33-3.96-.33-1.69 0-3.34.18-4.94.51l.75 7.49h7.38l.77-7.67ZM1268.9 1362c1.48 0 2.94.12 4.36.34l.43-4.34h-10.58l.45 4.52c1.73-.34 3.51-.52 5.34-.52Z" class="cls-2"/><path d="M1273.9 1378h-11c-1.03 0-1.89-.78-1.99-1.8l-.85-8.5c-8.58 3.41-14.73 11.62-15.13 21.31h47.95c-.41-10.04-7.02-18.5-16.1-21.67l-.89 8.86c-.1 1.02-.96 1.8-1.99 1.8ZM1268.9 1414c11.58 0 21-9.42 21-21h-42c0 11.58 9.42 21 21 21ZM1203.85 1330.24c-13.7 0-24.84 11.14-24.84 24.84s11.14 24.84 24.84 24.84 24.84-11.14 24.84-24.84-11.14-24.84-24.84-24.84Z" class="cls-2"/><path d="M1244.09 1406.34c.48-1 .06-2.19-.93-2.67l-15.4-7.42c-.58-.28-1.25-.26-1.81.04-2.89 1.55-5.96 2.8-9.11 3.71-.62.18-1.12.65-1.33 1.26l-5.15 14.71-13.57-.24-5.22-14.67c-.21-.6-.7-1.06-1.3-1.24a46.23 46.23 0 0 1-8.91-3.76c-.57-.31-1.25-.33-1.83-.05l-14.17 6.82-9.42-9.77 6.73-14.16c.27-.57.26-1.24-.04-1.8-1.5-2.81-2.72-5.78-3.62-8.84-.18-.62-.65-1.11-1.26-1.33l-14.92-5.22.24-13.57 14.78-5.25c.6-.21 1.06-.7 1.25-1.31a46.2 46.2 0 0 1 3.68-8.82c.31-.56.32-1.24.04-1.82l-6.85-14.23 9.77-9.43 14.09 6.7c.58.27 1.25.25 1.81-.05 2.85-1.54 5.87-2.79 8.96-3.7.61-.18 1.1-.65 1.32-1.25l5.18-14.57 13.57-.24 5.18 14.8c.21.61.7 1.07 1.32 1.26 3.16.94 6.22 2.21 9.1 3.79.56.31 1.24.33 1.82.05l13.84-6.58 9.77 9.42-6.76 14.03c-.28.58-.26 1.26.04 1.82 1.59 2.93 2.87 6.03 3.8 9.23.18.62.64 1.11 1.25 1.33l15.66 5.57c1.04.37 2.18-.17 2.55-1.21.37-1.04-.17-2.18-1.21-2.55l-14.71-5.23c-.88-2.8-2-5.52-3.34-8.12l6.95-14.43c.37-.78.21-1.71-.41-2.31l-11.81-11.39c-.6-.58-1.5-.72-2.25-.37l-14.18 6.74a50.782 50.782 0 0 0-7.99-3.32l-5.32-15.21c-.29-.82-1.05-1.37-1.92-1.34l-16.4.29c-.83.02-1.57.54-1.85 1.33l-5.31 14.92c-2.69.86-5.32 1.94-7.84 3.24l-14.44-6.86a2 2 0 0 0-2.25.37l-11.8 11.39c-.62.6-.79 1.53-.41 2.31l7.04 14.62a51.002 51.002 0 0 0-3.21 7.69l-15.14 5.38c-.79.28-1.31 1.02-1.33 1.85l-.29 16.4c-.02.86.52 1.64 1.34 1.92l15.33 5.36c.84 2.65 1.9 5.24 3.16 7.71l-6.9 14.51a2 2 0 0 0 .37 2.25l11.39 11.8c.6.62 1.53.79 2.31.41l14.55-7.01a50.91 50.91 0 0 0 7.8 3.29l5.35 15.03c.28.79 1.02 1.31 1.85 1.33l16.4.29h.04c.85 0 1.61-.54 1.89-1.34l5.29-15.11c2.75-.85 5.43-1.95 7.99-3.26l14.5 6.98c1 .48 2.19.06 2.67-.93Z" class="cls-4"/><path d="M1203.85 1326.24c-15.9 0-28.84 12.94-28.84 28.84s12.94 28.84 28.84 28.84 28.84-12.94 28.84-28.84-12.94-28.84-28.84-28.84Zm0 53.68c-13.7 0-24.84-11.14-24.84-24.84s11.14-24.84 24.84-24.84 24.84 11.14 24.84 24.84-11.14 24.84-24.84 24.84ZM1259.42 1354.66c-.38.42-.56.98-.51 1.54l.74 7.38c-10.61 3.72-18.31 13.66-18.72 25.42h-6.03v4h9c0 13.79 11.21 25 25 25s25-11.21 25-25h8.6v-4h-5.62c-.43-12.12-8.59-22.3-19.69-25.75l.71-7.05c.06-.56-.13-1.12-.51-1.54-.38-.42-.92-.66-1.48-.66h-15c-.56 0-1.1.24-1.48.66Zm9.48 59.34c-11.58 0-21-9.42-21-21h42c0 11.58-9.42 21-21 21Zm23.97-25h-47.95c.4-9.68 6.56-17.89 15.13-21.31l.85 8.5c.1 1.02.96 1.8 1.99 1.8h11c1.03 0 1.89-.78 1.99-1.8l.89-8.86c9.08 3.16 15.68 11.63 16.1 21.67Zm-28.91-22.49c1.59-.33 3.25-.51 4.94-.51 1.35 0 2.67.12 3.96.33l-.77 7.67h-7.38l-.75-7.49Zm9.73-8.51-.43 4.34c-1.42-.22-2.87-.34-4.36-.34-1.83 0-3.61.18-5.34.52l-.45-4.52h10.58ZM1303.05 1445.75c-4.82-14.21-18.14-23.75-33.15-23.75s-27.17 8.65-32.52 22.02a2.001 2.001 0 1 0 3.72 1.48c4.73-11.85 16.04-19.51 28.8-19.51s25.1 8.46 29.37 21.04c.28.83 1.06 1.36 1.89 1.36.21 0 .43-.04.64-.11a1.996 1.996 0 0 0 1.25-2.54ZM1203.84 1187.03h22.26c5.32 0 10.02 1.01 14.1 3.04 4.08 2.03 7.26 4.89 9.52 8.58 2.26 3.69 3.4 7.98 3.4 12.88s-1.13 9.19-3.4 12.88c-2.26 3.69-5.44 6.54-9.52 8.58-4.08 2.03-8.78 3.04-14.1 3.04h-22.26v-49Zm21.7 39.69c4.9 0 8.81-1.37 11.73-4.1 2.92-2.73 4.38-6.43 4.38-11.09s-1.46-8.37-4.38-11.09c-2.92-2.73-6.82-4.1-11.73-4.1h-10.36v30.38h10.36ZM1297.57 1220.28h-28.49c.51 2.33 1.73 4.18 3.64 5.53 1.91 1.35 4.29 2.03 7.14 2.03 1.96 0 3.7-.29 5.22-.88 1.52-.58 2.93-1.5 4.23-2.76l5.81 6.3c-3.55 4.06-8.73 6.09-15.54 6.09-4.25 0-8-.83-11.27-2.48-3.27-1.66-5.79-3.96-7.56-6.9-1.77-2.94-2.66-6.28-2.66-10.01s.88-7.01 2.62-9.97c1.75-2.96 4.15-5.27 7.21-6.93 3.06-1.66 6.47-2.48 10.25-2.48s7.02.79 10.01 2.38c2.99 1.59 5.33 3.86 7.04 6.83 1.7 2.96 2.56 6.4 2.56 10.32 0 .14-.07 1.12-.21 2.94Zm-25.55-12.11c-1.68 1.4-2.71 3.31-3.08 5.74h18.55c-.37-2.38-1.4-4.28-3.08-5.71-1.68-1.42-3.73-2.13-6.16-2.13s-4.55.7-6.23 2.1ZM1308.56 1235.44c-2.99-.77-5.37-1.74-7.14-2.91l3.64-7.84c1.68 1.07 3.71 1.95 6.09 2.62 2.38.68 4.71 1.01 7 1.01 4.62 0 6.93-1.14 6.93-3.43 0-1.07-.63-1.84-1.89-2.31-1.26-.47-3.2-.86-5.81-1.19-3.08-.47-5.62-1-7.63-1.61-2.01-.61-3.75-1.68-5.21-3.22-1.47-1.54-2.21-3.73-2.21-6.58 0-2.38.69-4.49 2.06-6.33 1.38-1.84 3.38-3.28 6.02-4.3 2.64-1.03 5.75-1.54 9.35-1.54 2.66 0 5.31.29 7.94.88 2.64.58 4.82 1.39 6.54 2.42l-3.64 7.77c-3.31-1.87-6.93-2.8-10.85-2.8-2.33 0-4.08.33-5.25.98-1.17.65-1.75 1.49-1.75 2.52 0 1.17.63 1.98 1.89 2.45 1.26.47 3.27.91 6.02 1.33 3.08.51 5.6 1.06 7.56 1.64 1.96.58 3.66 1.65 5.11 3.19 1.45 1.54 2.17 3.69 2.17 6.44 0 2.33-.7 4.41-2.1 6.23-1.4 1.82-3.44 3.23-6.12 4.23-2.68 1-5.87 1.5-9.56 1.5-3.13 0-6.18-.38-9.17-1.15ZM1342.79 1191.37c-1.26-1.17-1.89-2.61-1.89-4.34s.63-3.17 1.89-4.34c1.26-1.17 2.89-1.75 4.9-1.75s3.64.56 4.9 1.68c1.26 1.12 1.89 2.52 1.89 4.2 0 1.82-.63 3.33-1.89 4.51-1.26 1.19-2.89 1.79-4.9 1.79s-3.64-.58-4.9-1.75Zm-.56 7h10.92v37.66h-10.92v-37.66ZM1402.15 1198.37v31.36c0 6.91-1.8 12.04-5.39 15.4-3.59 3.36-8.84 5.04-15.75 5.04-3.64 0-7.09-.44-10.36-1.33-3.27-.89-5.97-2.17-8.12-3.85l4.34-7.84c1.59 1.31 3.59 2.34 6.02 3.12 2.43.77 4.85 1.15 7.28 1.15 3.78 0 6.57-.85 8.36-2.55 1.8-1.7 2.7-4.28 2.7-7.74v-1.61c-2.85 3.13-6.81 4.69-11.9 4.69-3.45 0-6.61-.76-9.48-2.27s-5.15-3.65-6.83-6.41c-1.68-2.75-2.52-5.93-2.52-9.52s.84-6.77 2.52-9.52c1.68-2.75 3.96-4.89 6.83-6.41 2.87-1.52 6.03-2.27 9.48-2.27 5.46 0 9.61 1.8 12.46 5.39v-4.83h10.36Zm-13.55 24.33c1.84-1.7 2.76-3.93 2.76-6.68s-.92-4.98-2.76-6.69c-1.84-1.7-4.21-2.55-7.1-2.55s-5.27.85-7.14 2.55c-1.87 1.7-2.8 3.93-2.8 6.69s.93 4.98 2.8 6.68c1.87 1.7 4.25 2.55 7.14 2.55s5.26-.85 7.1-2.55ZM1446.49 1202.01c2.87 2.8 4.31 6.95 4.31 12.46v21.56h-10.92v-19.88c0-2.99-.65-5.21-1.96-6.69-1.31-1.47-3.2-2.2-5.67-2.2-2.75 0-4.95.85-6.58 2.55-1.63 1.7-2.45 4.23-2.45 7.59v18.62h-10.92v-37.66h10.43v4.41c1.45-1.59 3.24-2.81 5.39-3.67 2.15-.86 4.5-1.29 7.07-1.29 4.67 0 8.44 1.4 11.3 4.2ZM352.84 1307.03h22.26c5.32 0 10.02 1.01 14.1 3.04 4.08 2.03 7.26 4.89 9.52 8.58 2.26 3.69 3.4 7.98 3.4 12.88s-1.13 9.19-3.4 12.88c-2.26 3.69-5.44 6.54-9.52 8.58-4.08 2.03-8.78 3.04-14.1 3.04h-22.26v-49Zm21.7 39.69c4.9 0 8.81-1.37 11.73-4.1 2.92-2.73 4.38-6.43 4.38-11.09s-1.46-8.37-4.38-11.09c-2.92-2.73-6.82-4.1-11.73-4.1h-10.36v30.38h10.36ZM446.57 1340.28h-28.49c.51 2.33 1.73 4.18 3.64 5.53 1.91 1.35 4.29 2.03 7.14 2.03 1.96 0 3.7-.29 5.22-.88 1.52-.58 2.93-1.5 4.23-2.76l5.81 6.3c-3.55 4.06-8.73 6.09-15.54 6.09-4.25 0-8-.83-11.27-2.48-3.27-1.66-5.79-3.96-7.56-6.9-1.77-2.94-2.66-6.28-2.66-10.01s.88-7.01 2.62-9.97c1.75-2.96 4.15-5.27 7.21-6.93 3.06-1.66 6.47-2.48 10.25-2.48s7.02.79 10.01 2.38c2.99 1.59 5.33 3.86 7.04 6.83 1.7 2.96 2.56 6.4 2.56 10.32 0 .14-.07 1.12-.21 2.94Zm-25.55-12.11c-1.68 1.4-2.71 3.31-3.08 5.74h18.55c-.37-2.38-1.4-4.28-3.08-5.71-1.68-1.42-3.73-2.13-6.16-2.13s-4.55.7-6.23 2.1ZM454.06 1304.09h10.92v51.94h-10.92v-51.94ZM475.69 1311.37c-1.26-1.17-1.89-2.61-1.89-4.34s.63-3.17 1.89-4.34c1.26-1.17 2.89-1.75 4.9-1.75s3.64.56 4.9 1.68c1.26 1.12 1.89 2.52 1.89 4.2 0 1.82-.63 3.33-1.89 4.51-1.26 1.19-2.89 1.79-4.9 1.79s-3.64-.58-4.9-1.75Zm-.56 7h10.92v37.66h-10.92v-37.66ZM533.58 1318.37l-15.89 37.66h-11.27l-15.82-37.66h11.27l10.43 25.62 10.78-25.62h10.5ZM573.69 1340.28H545.2c.51 2.33 1.73 4.18 3.64 5.53 1.91 1.35 4.29 2.03 7.14 2.03 1.96 0 3.7-.29 5.22-.88 1.52-.58 2.93-1.5 4.23-2.76l5.81 6.3c-3.55 4.06-8.73 6.09-15.54 6.09-4.25 0-8-.83-11.27-2.48-3.27-1.66-5.79-3.96-7.56-6.9-1.77-2.94-2.66-6.28-2.66-10.01s.88-7.01 2.62-9.97c1.75-2.96 4.15-5.27 7.21-6.93 3.06-1.66 6.47-2.48 10.25-2.48s7.02.79 10.01 2.38c2.99 1.59 5.33 3.86 7.04 6.83 1.7 2.96 2.56 6.4 2.56 10.32 0 .14-.07 1.12-.21 2.94Zm-25.55-12.11c-1.68 1.4-2.71 3.31-3.08 5.74h18.55c-.37-2.38-1.4-4.28-3.08-5.71-1.68-1.42-3.73-2.13-6.16-2.13s-4.55.7-6.23 2.1ZM596.89 1319.21c2.22-.93 4.77-1.4 7.67-1.4v10.08c-1.21-.09-2.03-.14-2.45-.14-3.13 0-5.58.88-7.35 2.62-1.77 1.75-2.66 4.38-2.66 7.88v17.78h-10.92v-37.66h10.43v4.97c1.31-1.82 3.07-3.2 5.28-4.13ZM1420.26 631.66l-24.34-22.71c4.78-5.52 7.4-12.5 7.4-19.88 0-16.77-13.65-30.42-30.42-30.42-8.8 0-16.74 3.76-22.3 9.76v-49.4h-45.5v35.05l-35.04.42.55 45.5 34.5-.41v34.5h45.5v-24.35c5.56 6 13.5 9.76 22.3 9.76 7.53 0 14.64-2.72 20.21-7.69 0 0 0 .01.02.02l24.4 22.77c.39.36.88.54 1.36.54.54 0 1.07-.21 1.46-.64.75-.81.71-2.07-.1-2.83Zm-77.77-42.59c0 2.07.21 4.09.61 6.04l-34 .41v-37.51l37.09-.45.2 16.63c-2.48 4.4-3.9 9.47-3.9 14.87Zm-33.39-66.05h37.5v30.55l-37.5.45v-31Zm-34.54 72.92-.45-37.5 30.99-.37v37.51l-30.54.37Zm72.04 34.13h-37.5v-30.55l35.1-.42a30.08 30.08 0 0 0 2.41 5.21v25.75Z" class="cls-4"/><path d="M477.97 485H318.35c-1.1 0-2 .9-2 2s.9 2 2 2h59.55v14.44c-11.6 3.8-20 14.71-20 27.56v.02l.48 56.98h-18.21c-5.66 0-10.27 4.46-10.27 9.94v32.12c0 5.48 4.61 9.94 10.27 9.94h40.46c5.66 0 10.27-4.46 10.27-9.94v-32.12c0-5.48-4.61-9.94-10.27-9.94h-18.25l-.36-42.11c5.07 8.45 14.32 14.11 24.87 14.11 15.96 0 28.94-12.96 29-28.9l45.77 72.92-21.24-4.71-.87 3.9 25.91 5.74c.14.02.28.05.43.05.16 0 .32-.02.47-.06.84-.2 1.45-.92 1.52-1.78l2-24c.09-1.1-.73-2.07-1.83-2.16-1.09-.1-2.07.73-2.16 1.83l-1.5 18.02-50.55-80.54c-3.04-7.63-9.22-13.69-16.95-16.53V489h81.07c1.1 0 2-.9 2-2s-.9-2-2-2ZM386.9 630.06c0 3.28-2.81 5.94-6.27 5.94h-27.58l33.85-30.27v24.33ZM380.63 592c3.46 0 6.27 2.67 6.27 5.94v2.42L347.05 636h-6.88c-3.46 0-6.27-2.67-6.27-5.94v-4.29L373.68 592h6.95Zm-46.73 28.52v-22.58c0-3.28 2.81-5.94 6.27-5.94h27.32l-33.6 28.52Zm78-89.52c0 13.79-11.21 25-25 25s-25-11.21-25-24.99c0-10.62 6.65-19.7 16-23.33v22.82c0 5.24 4.26 9.5 9.5 9.5s9.5-4.26 9.5-9.5v-22.41c8.82 3.87 15 12.68 15 22.91Zm-30-24.5c1.62-.33 3.29-.5 5-.5 2.07 0 4.08.26 6 .73v23.77c0 3.03-2.47 5.5-5.5 5.5s-5.5-2.47-5.5-5.5v-24Zm11-3.87c-1.94-.41-3.94-.63-6-.63-1.71 0-3.37.16-5 .44V489h11v13.63Z" style="fill:#333"/><path d="M333.21 1176H277.1c-3.42 0-6.2-2.78-6.2-6.2V1109h94v38.14c0 1.1.9 2 2 2s2-.9 2-2V1105h-.2l-26.84-27.4c-.38-.38-.89-.6-1.43-.6h-45.06c-.54 0-1.05.22-1.43.6L267.1 1105h-.2v64.8c0 5.62 4.57 10.2 10.2 10.2h56.11c1.1 0 2-.9 2-2s-.9-2-2-2Zm6.38-95 23.51 24h-43.2v-24h19.69Zm-43.38 0h19.69v24h-43.2l23.51-24Z" class="cls-4"/><path d="M384.9 1150c-23.71 0-43 19.29-43 43s19.29 43 43 43 43-19.29 43-43-19.29-43-43-43Zm0 82c-21.5 0-39-17.5-39-39s17.5-39 39-39 39 17.5 39 39-17.5 39-39 39Z" class="cls-4"/><path d="M407.15 1180.44a2 2 0 0 0-2.81.31c-.16.2-16 20-19.53 23.91-2.11 2.34-4.9.38-5.56-.15l-8.93-8.93c-.78-.78-2.05-.78-2.83 0-.78.78-.78 2.05 0 2.83l9 9 .13.12c1.25 1.05 3.49 2.26 5.91 2.26 1.76 0 3.61-.64 5.25-2.45 3.61-4 19.03-23.27 19.69-24.09a2 2 0 0 0-.31-2.81Z" class="cls-4"/></g></svg>