<svg xmlns="http://www.w3.org/2000/svg" width="1603.24" height="1656.95"><path fill="none" stroke="#d9d9d9" stroke-linecap="round" stroke-miterlimit="10" stroke-width="16.31" d="M544.24 108.69v130l150 139V597.4"/><circle cx="544.24" cy="66.69" r="42" fill="#d9d9d9"/><circle cx="327.24" cy="238.69" r="42" fill="#d9d9d9"/><circle cx="48.74" cy="517.19" r="42" fill="#d9d9d9"/><circle cx="525.24" cy="436.69" r="42" fill="#d9d9d9"/><circle cx="48.24" cy="951.69" r="42" fill="#d9d9d9"/><circle cx="75.24" cy="770.69" r="42" fill="#d9d9d9"/><circle cx="1561.24" cy="738.69" r="42" fill="#d9d9d9"/><circle cx="1561.24" cy="976.69" r="42" fill="#d9d9d9"/><circle cx="951.24" cy="1285.69" r="42" fill="#d9d9d9"/><circle cx="472.24" cy="1454.69" r="42" fill="#d9d9d9"/><circle cx="776.24" cy="1454.69" r="42" fill="#d9d9d9"/><circle cx="628.24" cy="1185.69" r="42" fill="#d9d9d9"/><g fill="none" stroke="#d9d9d9" stroke-linecap="round" stroke-miterlimit="10"><path stroke-width="15" d="m353.7 271.3 149.04 129.89M90.74 517.19h158.5l181 160.41h150.31"/><path stroke-width="16.31" d="M993.24 196.69H842.42v251.36l-66.18 69.14"/><path stroke-width="19.87" d="m829.24 597.69 247-229"/><path stroke-width="19.84" d="m974.24 699.69 239-225.41V336.24M1519.24 738.69l-67.73.46-34.09 31.54H973.96M596.96 770.69H117.24M525.24 868.24h-76l-218 211.45M472.24 1412.69v-280.54L657.6 951.69M776.24 951.69v461M1333.24 568.69l-199.91 202M951.24 1243.69v-100l-56.37-64v-128M1399.24 1018.69V868.24h-446.5M1175.99 1243.69v-125.18L942.42 897.33M1460.24 1038.69v-62h59"/></g><path fill="#f60040" d="M855.33 976.42H697.15c-65.52 0-118.64-53.12-118.64-118.64V699.6c0-65.52 53.12-118.64 118.64-118.64h158.18c65.52 0 118.64 53.12 118.64 118.64v158.18c0 65.52-53.12 118.64-118.64 118.64zM831.6 660.05H720.87c-34.94 0-63.27 28.33-63.27 63.27v110.73c0 34.94 28.33 63.27 63.27 63.27H831.6c34.94 0 63.27-28.33 63.27-63.27V723.32c0-34.94-28.33-63.27-63.27-63.27z"/><circle cx="776.24" cy="778.69" r="39.55" fill="#d9d9d9"/><path fill="#fff" stroke="#d9d9d9" stroke-miterlimit="10" stroke-width="13" d="M1448.27 438.19h47.33c29.7 0 53.81 24.11 53.81 53.81v37.19h-154.95V492c0-29.7 24.11-53.81 53.81-53.81z"/><circle cx="1471.74" cy="374.19" r="43.5" fill="#fff" stroke="#d9d9d9" stroke-miterlimit="10" stroke-width="15"/><path fill="#f60040" d="M1297.24 1133.03h203.65v187.92h-203.65z"/><path fill="#f60040" stroke="#d9d9d9" stroke-miterlimit="10" stroke-width="13" d="M1501.24 1321.35c0 20.62-45.49 37.34-101.61 37.34s-101.61-16.72-101.61-37.34"/><path fill="none" stroke="#d9d9d9" stroke-miterlimit="10" stroke-width="13" d="M1500.81 1258.58c0 20.62-45.49 37.34-101.61 37.34s-101.61-16.72-101.61-37.34M1500.81 1195.8c0 20.62-45.49 37.34-101.61 37.34s-101.61-16.72-101.61-37.34"/><ellipse cx="1399.2" cy="1133.03" fill="#f60040" stroke="#d9d9d9" stroke-miterlimit="10" stroke-width="13" rx="101.61" ry="37.34"/><path fill="none" stroke="#d9d9d9" stroke-miterlimit="10" stroke-width="13" d="m1297.58 1133.03.43 188.32M1500.54 1133.03l.43 188.32"/><path fill="#fff" stroke="#d9d9d9" stroke-linecap="round" stroke-linejoin="round" stroke-width="13" d="m1287.75 202.35 16.18 34.04-25.8 26.74-34.89-16.81c-6.78 3.64-13.99 6.6-21.53 8.77l-12.73 36.4-37.15-.66-12.87-36.17c-7.38-2.23-14.43-5.22-21.06-8.88l-35.03 16.87-25.8-26.74 16.59-34.89a109.48 109.48 0 0 1-8.55-20.89l-36.88-12.9.66-37.14 36.43-12.95a109.87 109.87 0 0 1 8.69-20.84l-16.94-35.17 26.74-25.8 34.74 16.52a109.87 109.87 0 0 1 21.16-8.75l12.79-35.95 37.15-.66 12.81 36.61c7.53 2.23 14.73 5.24 21.49 8.94l34.18-16.24 26.74 25.8-16.73 34.74c3.73 6.86 6.75 14.16 8.97 21.8l35.47 12.61.66 37.14-36.36 12.72c-2.27 7.62-5.35 14.9-9.13 21.73z"/><circle cx="1191.07" cy="149" r="60.78" fill="none" stroke="#d9d9d9" stroke-miterlimit="10" stroke-width="15.06"/><circle cx="1191.07" cy="149" r="48.88" fill="#fff"/><path fill="none" stroke="#d9d9d9" stroke-miterlimit="10" stroke-width="13" d="M1039.24 1346.69h111v297h-111z"/><path fill="none" stroke="#d9d9d9" stroke-miterlimit="10" stroke-width="13" d="m946.887 1552.435-1.337-110.992 203.485-2.45 1.337 110.991z"/><path fill="#fff" stroke="#d9d9d9" stroke-miterlimit="10" stroke-width="15" d="M1291.24 1528.69c0 20.99-8.51 39.99-22.26 53.74s-32.75 22.26-53.74 22.26c-41.97 0-76-34.03-76-76s34.03-76 76-76 76 34.03 76 76z"/><path fill="#fff" stroke="#d9d9d9" stroke-linecap="round" stroke-miterlimit="10" stroke-width="20.87" d="m1338.24 1646.51-65.26-60.9"/><path fill="none" stroke="#d9d9d9" stroke-linecap="round" stroke-miterlimit="10" stroke-width="13" d="m56.88 1323.16-45.31-46.74c-7.79-8.03-6.46-21.96 2.97-31.1l71.63-69.44c9.43-9.14 23.39-10.04 31.17-2.01l45.31 46.74"/><path fill="none" stroke="#d9d9d9" stroke-linecap="round" stroke-linejoin="round" stroke-width="13" d="M191.86 1183.81h44.64l41.67 39.54v43.58l-86.31 82.76h-36.49v-67.33l-70.79 6.98 70.79-6.98-64.7 67.33M181.38 1254.62l29.63-29.63"/></svg>