<svg xmlns="http://www.w3.org/2000/svg" id="Layer_2" width="1604.24" height="1655.1" data-name="Layer 2"><defs><style>.cls-1,.cls-2,.cls-3{stroke-width:15px;stroke:#333}.cls-1,.cls-2{stroke-miterlimit:10}.cls-1,.cls-7{fill:#f60040}.cls-2{fill:#d9d9d9}.cls-3{fill:none;stroke-linecap:round;stroke-linejoin:round}.cls-8{fill:#333}</style></defs><g id="Layer_3" data-name="Layer 3"><path d="M545.24 109.79v130l150 139v219.7" class="cls-3"/><circle cx="545.24" cy="67.79" r="42" class="cls-8"/><circle cx="328.24" cy="239.79" r="42" class="cls-8"/><circle cx="49.74" cy="518.29" r="42" class="cls-8"/><circle cx="526.24" cy="437.79" r="42" class="cls-8"/><circle cx="49.24" cy="952.79" r="42" class="cls-8"/><circle cx="76.24" cy="771.79" r="42" class="cls-8"/><circle cx="1562.24" cy="739.79" r="42" class="cls-8"/><circle cx="1562.24" cy="977.79" r="42" class="cls-8"/><circle cx="952.24" cy="1286.79" r="42" class="cls-8"/><circle cx="473.24" cy="1455.79" r="42" class="cls-8"/><circle cx="777.24" cy="1455.79" r="42" class="cls-8"/><circle cx="629.24" cy="1186.79" r="42" class="cls-8"/><path d="m354.7 272.39 149.04 129.9M91.74 518.29h158.5l181 160.4h150.31M994.24 197.79H843.42v251.36l-66.18 69.14M830.24 598.79l247-229M975.24 700.79l239-225.42V337.34M1520.24 739.79l-67.73.45-34.09 31.55H974.96M597.96 771.79H118.24M526.24 869.33h-76l-218 211.46M473.24 1413.79v-280.55L658.6 952.79M777.24 952.79v461M1334.24 569.79l-199.91 202M952.24 1244.79v-100l-56.37-64v-128M1400.24 1019.79V869.33h-446.5M1176.99 1244.79V1119.6L943.42 898.42M1461.24 1039.79v-62h59" class="cls-3"/><path d="M856.33 977.51H698.15c-65.52 0-118.64-53.12-118.64-118.64V700.69c0-65.52 53.12-118.64 118.64-118.64h158.18c65.52 0 118.64 53.12 118.64 118.64v158.18c0 65.52-53.12 118.64-118.64 118.64ZM832.6 661.15H721.87c-34.94 0-63.27 28.33-63.27 63.27v110.73c0 34.94 28.33 63.27 63.27 63.27H832.6c34.94 0 63.27-28.33 63.27-63.27V724.42c0-34.94-28.33-63.27-63.27-63.27Z" class="cls-7"/><circle cx="777.24" cy="779.79" r="39.55" class="cls-8"/><path d="M1449.27 439.29h47.33c29.7 0 53.81 24.11 53.81 53.81v37.19h-154.95V493.1c0-29.7 24.11-53.81 53.81-53.81Z" class="cls-2"/><circle cx="1472.74" cy="375.29" r="43.5" class="cls-2"/><path d="M1298.24 1134.12h203.65v187.92h-203.65z" class="cls-7"/><path d="M1502.24 1322.45c0 20.62-45.49 37.34-101.61 37.34s-101.61-16.72-101.61-37.34" style="stroke-linecap:round;stroke-linejoin:round;fill:#f60040;stroke:#333;stroke-width:15px"/><path d="M1501.81 1259.67c0 20.62-45.49 37.34-101.61 37.34s-101.61-16.72-101.61-37.34M1501.81 1196.9c0 20.62-45.49 37.34-101.61 37.34s-101.61-16.72-101.61-37.34" class="cls-3"/><ellipse cx="1400.2" cy="1134.12" class="cls-1" rx="101.61" ry="37.34"/><path d="m1298.58 1134.12.43 188.33M1501.54 1134.12l.43 188.33" class="cls-3"/><path d="m1288.75 203.45 16.18 34.04-25.8 26.74-34.89-16.81c-6.78 3.64-13.99 6.6-21.53 8.77l-12.73 36.4-37.15-.66-12.87-36.17c-7.38-2.23-14.43-5.22-21.06-8.88l-35.03 16.87-25.8-26.74 16.59-34.89a109.48 109.48 0 0 1-8.55-20.89l-36.88-12.9.66-37.14 36.43-12.95a109.87 109.87 0 0 1 8.69-20.84l-16.94-35.17 26.74-25.8 34.74 16.52a109.87 109.87 0 0 1 21.16-8.75l12.79-35.95 37.15-.66 12.81 36.61c7.53 2.23 14.73 5.24 21.49 8.94l34.18-16.24 26.74 25.8-16.73 34.74c3.73 6.86 6.75 14.16 8.97 21.8l35.47 12.61.66 37.14-36.36 12.72c-2.27 7.62-5.35 14.9-9.13 21.73Z" style="fill:#333;stroke:#d9d9d9;stroke-miterlimit:10;stroke-width:15px"/><circle cx="1192.07" cy="150.1" r="60.78" class="cls-8"/><circle cx="1192.07" cy="150.1" r="48.88" style="stroke-width:13px;fill:#333;stroke:#d9d9d9;stroke-miterlimit:10"/><path d="M1040.24 1347.79h111v297h-111z" class="cls-3"/><path d="m947.895 1553.532-1.337-110.992 203.485-2.451 1.337 110.992z" class="cls-3"/><path d="M1292.24 1529.79c0 20.99-8.51 39.99-22.26 53.74-13.75 13.75-32.75 22.26-53.74 22.26-41.97 0-76-34.03-76-76s34.03-76 76-76 76 34.03 76 76Z" class="cls-1"/><path d="m1339.24 1647.6-65.26-60.89M57.88 1324.25l-45.31-46.74c-7.79-8.03-6.46-21.96 2.97-31.1l71.63-69.44c9.43-9.14 23.39-10.04 31.17-2.01l45.31 46.74" class="cls-3"/><path d="M192.86 1184.9h44.64l41.67 39.54v43.58l-86.31 82.77h-36.49v-67.34l-70.79 6.99 70.79-6.99-64.7 67.34M182.38 1255.71l29.63-29.63" class="cls-3"/></g></svg>