<?xml version="1.0" encoding="UTF-8"?>
<svg id="Layer_1" data-name="Layer 1" xmlns="http://www.w3.org/2000/svg" xmlns:xlink="http://www.w3.org/1999/xlink" viewBox="0 0 1200 988.23">
  <defs>
    <style>
      .cls-1 {
        fill: none;
      }

      .cls-2 {
        fill: #fff;
      }

      .cls-3 {
        clip-path: url(#clippath);
      }
    </style>
    <clipPath id="clippath">
      <rect class="cls-1" width="1200" height="988.23"/>
    </clipPath>
  </defs>
  <g class="cls-3">
    <path class="cls-2" d="M847.06,847.06h-282.35c-116.95,0-211.77-94.81-211.77-211.76v-282.35c0-116.95,94.81-211.77,211.77-211.77h282.35c116.95,0,211.76,94.81,211.76,211.77v282.35c0,116.95-94.81,211.76-211.76,211.76M804.71,282.35h-197.65c-62.38,0-112.94,50.57-112.94,112.94v197.65c0,62.38,50.57,112.94,112.94,112.94h197.65c62.38,0,112.94-50.57,112.94-112.94v-197.65c0-62.38-50.57-112.94-112.94-112.94"/>
    <path class="cls-2" d="M194.12,352.94h-44.12c-4.87,0-8.82,3.95-8.82,8.82v397.06c0,48.73,39.5,88.24,88.24,88.24h44.12c4.87,0,8.82-3.95,8.82-8.83v-397.06c0-48.73-39.5-88.23-88.24-88.23"/>
    <path class="cls-2" d="M776.47,494.12c0,38.98-31.6,70.59-70.59,70.59s-70.59-31.6-70.59-70.59,31.6-70.59,70.59-70.59,70.59,31.6,70.59,70.59"/>
    <path class="cls-2" d="M282.35,211.76c0,38.98-31.6,70.59-70.59,70.59s-70.59-31.6-70.59-70.59,31.6-70.59,70.59-70.59,70.59,31.6,70.59,70.59"/>
  </g>
</svg>