<?xml version="1.0" encoding="UTF-8"?>
<svg id="Layer_1" xmlns="http://www.w3.org/2000/svg" version="1.1" viewBox="0 0 138 27">
  <!-- Generator: Adobe Illustrator 29.3.1, SVG Export Plug-In . SVG Version: 2.1.0 Build 151)  -->
  <defs>
    <style>
      .st0 {
        isolation: isolate;
        opacity: .5;
      }

      .st0, .st1 {
        fill: #4a6cf7;
      }

      .st2 {
        fill: #fff;
      }
    </style>
  </defs>
  <path class="st2" d="M53.2,7.5h3.8c0-3.4-2.8-5.7-7-5.7s-7.2,2.3-7.2,5.7c0,2.8,2,4.4,5.2,5.2l2.1.5c2.1.5,3.2,1.1,3.2,2.4,0,1.4-1.3,2.3-3.4,2.3s-3.6-1-3.7-2.9h-3.9c.1,4.1,3,6.2,7.6,6.2s7.3-2.2,7.3-5.7c0-3.1-2.4-4.8-5.7-5.6l-1.7-.4c-1.6-.4-3-1-3-2.3,0-1.2,1.1-2.1,3-2.1s3.1.9,3.2,2.4ZM67.5,6.8h-2.7v-3.4h-3.9v3.4h-1.9v3h1.9v7.4c0,2.8,1.9,4.2,4.7,4,1,0,1.7-.2,2.1-.4l-.6-2.9c-.2,0-.6.1-1,.1-.8,0-1.3-.3-1.3-1.4v-6.9h2.7v-3ZM74.1,21.3c2.1,0,3.5-.9,4.1-2.2h.1v2h3.7v-9.6c0-3.4-2.9-4.8-6-4.8s-5.6,1.6-6.2,4.2l3.6.3c.3-.9,1.1-1.6,2.5-1.6s2.1.7,2.1,1.8h0c0,1-1,1.1-3.4,1.3-2.8.3-5.3,1.2-5.3,4.4s2,4.2,4.7,4.2h0ZM75.2,18.6c-1.2,0-2.1-.6-2.1-1.6s.9-1.7,2.3-1.8c.9-.1,2.3-.3,2.7-.6v1.5c0,1.5-1.2,2.6-3,2.6ZM85.1,21h3.9v-8c0-1.7,1.3-2.9,3-2.9s1.3,0,1.7.2v-3.5c-.4,0-.8-.1-1.2-.1-1.6,0-2.9.9-3.4,2.7h-.1v-2.5h-3.8v14.2ZM104,6.8h-2.7v-3.4h-3.9v3.4h-1.9v3h1.9v7.4c0,2.8,1.9,4.2,4.7,4,1,0,1.7-.2,2.1-.4l-.6-2.9c-.2,0-.6.1-1,.1-.8,0-1.3-.3-1.3-1.4v-6.9h2.7v-3ZM115.7,15c0,1.9-1.3,2.9-2.7,2.9s-2.4-1-2.5-2.7V6.8h-3.9v9c0,3.3,1.9,5.3,4.8,5.3s3.7-1.1,4.3-2.8h.1v2.6h3.8V6.8h-3.9v8.1ZM122.8,26.3h3.9v-7.6h.1c.5,1.2,1.7,2.5,4,2.5s5.8-2.6,5.8-7.3-2.6-7.3-5.7-7.3-3.5,1.4-4,2.6h-.2v-2.4h-3.9v19.5ZM126.6,13.9c0-2.5,1.1-4.1,3-4.1s3,1.7,3,4.1-1.1,4.2-3,4.2-3-1.7-3-4.2Z"/>
  <g>
    <path class="st1" d="M0,0C13.8,0,25,11.2,25,25H2c-1.1,0-2-.9-2-2V0Z"/>
    <path class="st0" d="M6,25C6,11.2,17.2,0,31,0v23c0,1.1-.9,2-2,2H6Z"/>
  </g>
</svg>